<svg xmlns="http://www.w3.org/2000/svg" viewBox="0 0 800 600">
    <!-- Gradient Background -->
    <defs>
        <linearGradient id="bgGradient" x1="0%" y1="0%" x2="0%" y2="100%">
            <stop offset="0%" style="stop-color:#000e3d"/>
            <stop offset="33%" style="stop-color:#091749"/>
            <stop offset="66%" style="stop-color:#122058"/>
            <stop offset="100%" style="stop-color:#192661"/>
        </linearGradient>
        
        <!-- Grid Pattern -->
        <pattern id="grid" width="40" height="40" patternUnits="userSpaceOnUse">
            <path d="M 40 0 L 0 0 0 40" fill="none" stroke="rgba(255,255,255,0.1)" stroke-width="3"/>
        </pattern>
    </defs>
    
    <!-- Background with gradient -->
    <rect width="800" height="600" fill="url(#bgGradient)"/>
    
    <!-- Grid overlay -->
    <rect width="800" height="600" fill="url(#grid)"/>
    
    <!-- Video Tutorial Icon 1 (Top Right) -->
    <g transform="translate(600,50) rotate(10)" stroke="rgba(255,255,255,0.1)" fill="none" stroke-width="5">
        <rect x="10" y="10" width="120" height="80" rx="5"/>
        <path d="M 50,35 l40,15 l-40,15 z"/>
    </g>
    
    <!-- Certificate (Bottom Left) -->
    <g transform="translate(50,420) rotate(-8)" stroke="rgba(255,255,255,0.1)" fill="none" stroke-width="5">
        <rect x="10" y="10" width="120" height="80" rx="5"/>
        <path d="M 20,30 h100 M 20,50 h80 M 20,70 h60"/>
        <circle cx="110" cy="60" r="15"/>
    </g>
    
    <!-- Video Tutorial Icon 2 (Bottom Right) -->
    <g transform="translate(600,420) rotate(-5)" stroke="rgba(255,255,255,0.1)" fill="none" stroke-width="5">
        <rect x="10" y="10" width="120" height="80" rx="5"/>
        <path d="M 50,35 l40,15 l-40,15 z"/>
    </g>
</svg>
